<svg width="16" height="16" viewBox="0 0 16 16" fill="none" xmlns="http://www.w3.org/2000/svg">
<path fill-rule="evenodd" clip-rule="evenodd" d="M6.66732 11.9999C3.7218 11.9999 1.33398 9.61211 1.33398 6.66659C1.33398 3.72107 3.7218 1.33325 6.66732 1.33325C9.61284 1.33325 12.0007 3.72107 12.0007 6.66659C12.0007 7.8991 11.5826 9.03397 10.8805 9.9371L14.4719 13.5285L13.5291 14.4713L9.93766 10.8799C9.03455 11.5819 7.89975 11.9999 6.66732 11.9999ZM10.6675 6.66656C10.6675 8.8757 8.87665 10.6666 6.66751 10.6666C4.45837 10.6666 2.66751 8.8757 2.66751 6.66656C2.66751 4.45742 4.45837 2.66656 6.66751 2.66656C8.87665 2.66656 10.6675 4.45742 10.6675 6.66656Z" fill="#101010"/>
</svg>
